<?xml version="1.0" encoding="utf-8"?>
<!-- Generator: Adobe Illustrator 16.0.3, SVG Export Plug-In . SVG Version: 6.00 Build 0)  -->
<!DOCTYPE svg PUBLIC "-//W3C//DTD SVG 1.1//EN" "http://www.w3.org/Graphics/SVG/1.1/DTD/svg11.dtd">
<svg version="1.1" id="Layer_1" xmlns="http://www.w3.org/2000/svg" xmlns:xlink="http://www.w3.org/1999/xlink" x="0px" y="0px"
	 viewBox="0 0 955.176 211.765" enable-background="new 0 0 955.176 211.765"
	 xml:space="preserve">
<g>
	<g>
		<path fill="#334258" d="M124.037,211.765H0V3.485h46.913V173.71h77.124V211.765z"/>
		<path fill="#334258" d="M198.983,211.765h-46.914V3.485h46.914V211.765z"/>
		<path fill="#334258" d="M433.696,211.765h-47.35L300.508,80.9c-5.035-7.647-8.521-13.41-10.457-17.284h-0.581
			c0.773,7.359,1.162,18.592,1.162,33.696v114.453h-44.3V3.485h50.545l82.644,126.797c3.776,5.715,7.262,11.379,10.457,16.994h0.581
			c-0.775-4.842-1.162-14.379-1.162-28.613V3.485h44.3V211.765z"/>
		<path fill="#334258" d="M606.245,211.765H481.336V3.485h120.116v38.199h-73.203v46.333h68.119v38.054h-68.119v47.639h77.996
			V211.765z"/>
	</g>
	<g>
		<path fill="#6CC3F6" d="M771.442,3.485v131.301h24.982v34.277h-24.982v42.701h-41.83v-42.701h-90.777v-35.875
			c8.036-9.006,16.363-18.857,24.982-29.558c8.617-10.698,16.943-21.714,24.981-33.043c8.036-11.329,15.517-22.73,22.44-34.205
			c6.922-11.474,12.804-22.439,17.646-32.897H771.442z M679.939,134.787h49.673V62.019c-3.391,6.296-7.069,12.661-11.038,19.1
			c-3.972,6.44-8.134,12.781-12.491,19.027c-4.357,6.245-8.765,12.297-13.217,18.155
			C688.411,124.16,684.102,129.654,679.939,134.787z"/>
		<path fill="#6CC3F6" d="M866.577,173.71h88.308v38.055H816.323v-15.688c0-10.65,1.79-20.211,5.373-28.686
			c3.582-8.471,8.084-16.072,13.508-22.803c5.422-6.729,11.352-12.684,17.793-17.865c6.438-5.178,12.563-9.852,18.373-14.016
			c6.1-4.357,11.449-8.519,16.049-12.491c4.599-3.969,8.472-7.916,11.62-11.837c3.146-3.922,5.494-7.892,7.044-11.91
			c1.548-4.017,2.324-8.302,2.324-12.854c0-8.907-2.52-15.637-7.553-20.188c-5.036-4.551-12.734-6.827-23.094-6.827
			c-17.915,0-35.054,7.117-51.416,21.352V17.574C844.45,5.859,864.882,0,887.637,0c10.554,0,20.02,1.38,28.396,4.14
			c8.374,2.759,15.469,6.706,21.278,11.837c5.81,5.134,10.239,11.354,13.29,18.664c3.05,7.312,4.575,15.468,4.575,24.473
			c0,9.587-1.478,18.108-4.431,25.563c-2.954,7.457-6.876,14.233-11.765,20.334c-4.891,6.1-10.53,11.692-16.921,16.776
			s-13.024,9.998-19.898,14.742c-4.647,3.293-9.127,6.561-13.435,9.805c-4.31,3.244-8.111,6.439-11.401,9.586
			c-3.293,3.146-5.907,6.223-7.844,9.223C867.544,168.144,866.577,171.001,866.577,173.71z"/>
	</g>
</g>
</svg>
